<svg width="533" height="607" viewBox="0 0 533 607" fill="none" xmlns="http://www.w3.org/2000/svg">
<path d="M158.78 245.525L314.369 335.353C254.729 386.354 167.113 396.979 95.2805 355.507C4.16877 302.904 -27.052 186.392 25.5541 95.2806C78.1603 4.16879 194.668 -27.052 285.78 25.5541C357.613 67.0266 392.217 148.218 377.869 225.367L222.28 135.54C207.097 126.773 189.793 124.991 174.095 129.197C158.643 133.338 144.743 143.283 135.952 158.071C135.811 158.308 135.677 158.544 135.54 158.78C135.402 159.017 135.264 159.253 135.13 159.493C118.169 189.758 128.65 228.129 158.78 245.525Z" fill="url(#paint0_linear_558_2659)"/>
<path d="M156.5 243.5L58.561 186.153C28.4267 168.368 17.9492 129.151 34.9108 98.2192C35.0448 97.974 35.1824 97.7324 35.32 97.4908C35.4576 97.2456 35.5952 97.0076 35.7327 96.766C44.5239 81.6465 58.4234 71.4851 73.875 67.2518C89.5736 62.9535 106.877 64.7745 122.061 73.7352L222.5 136C207.317 127.039 199.513 127.831 183.814 132.129C168.363 136.362 154.463 146.527 145.672 161.643C145.531 161.885 145.397 162.126 145.259 162.368C145.122 162.61 144.984 162.851 144.85 163.096C127.889 194.028 126.37 225.716 156.5 243.5Z" fill="url(#paint1_linear_558_2659)"/>
<path d="M373.281 360.536L217.692 270.708C277.332 219.707 364.948 209.082 436.78 250.554C527.892 303.157 559.113 419.669 506.507 510.78C453.904 601.892 337.393 633.113 246.281 580.507C174.448 539.034 139.844 457.843 154.192 380.694L309.781 470.521C324.964 479.288 342.268 481.07 357.966 476.864C373.418 472.723 387.318 462.778 396.109 447.99C396.25 447.753 396.384 447.517 396.521 447.281C396.659 447.044 396.797 446.808 396.931 446.568C413.892 416.303 403.415 377.932 373.281 360.536Z" fill="url(#paint2_linear_558_2659)"/>
<path d="M369.725 357.833L475.236 422.812C503.976 439.873 513.968 477.506 497.792 507.185C497.664 507.421 497.533 507.652 497.401 507.884C497.27 508.119 497.139 508.348 497.008 508.58C488.624 523.087 475.368 532.837 460.631 536.899C445.659 541.023 429.157 539.276 414.676 530.678L314.225 472.333C328.705 480.931 340.809 478.772 355.781 474.648C370.518 470.586 383.774 460.833 392.158 446.329C392.292 446.097 392.42 445.865 392.551 445.633C392.683 445.398 392.814 445.17 392.942 444.935C409.118 415.255 398.464 374.897 369.725 357.833Z" fill="url(#paint3_linear_558_2659)"/>
<defs>
<linearGradient id="paint0_linear_558_2659" x1="108" y1="29" x2="236.5" y2="346.5" gradientUnits="userSpaceOnUse">
<stop offset="0.147595" stop-color="#EF9AFF"/>
<stop offset="1" stop-color="#CF07F4"/>
</linearGradient>
<linearGradient id="paint1_linear_558_2659" x1="22.0005" y1="98.5" x2="351.09" y2="288.5" gradientUnits="userSpaceOnUse">
<stop stop-color="#BF07E1"/>
<stop offset="1" stop-color="#69047B"/>
</linearGradient>
<linearGradient id="paint2_linear_558_2659" x1="289" y1="252.5" x2="440.5" y2="584" gradientUnits="userSpaceOnUse">
<stop stop-color="#7A53FD"/>
<stop offset="0.838022" stop-color="#9E8AFF"/>
</linearGradient>
<linearGradient id="paint3_linear_558_2659" x1="496.179" y1="505" x2="184.367" y2="329.942" gradientUnits="userSpaceOnUse">
<stop stop-color="#513EB0"/>
<stop offset="1" stop-color="#221A4A"/>
</linearGradient>
</defs>
</svg>
